<svg width="1800" height="1000" viewBox="0 0 1800 1000" fill="none" xmlns="http://www.w3.org/2000/svg">
  <defs>
    <linearGradient id="bg" x1="0" y1="0" x2="1800" y2="1000">
      <stop offset="0" stop-color="#020617"/>
      <stop offset="0.45" stop-color="#07111f"/>
      <stop offset="1" stop-color="#111827"/>
    </linearGradient>
    <radialGradient id="spot" cx="52%" cy="42%" r="64%">
      <stop offset="0" stop-color="#1e3a8a" stop-opacity="0.36"/>
      <stop offset="0.50" stop-color="#0f172a" stop-opacity="0.12"/>
      <stop offset="1" stop-color="#020617" stop-opacity="0"/>
    </radialGradient>
    <linearGradient id="gold" x1="0" y1="0" x2="1" y2="1">
      <stop offset="0" stop-color="#fff7d6"/>
      <stop offset="0.36" stop-color="#d8b76a"/>
      <stop offset="0.72" stop-color="#a67c2e"/>
      <stop offset="1" stop-color="#6f4e13"/>
    </linearGradient>
    <linearGradient id="admit" x1="250" y1="500" x2="1550" y2="500">
      <stop offset="0" stop-color="#38bdf8"/>
      <stop offset="0.5" stop-color="#f8e7b0"/>
      <stop offset="1" stop-color="#22c55e"/>
    </linearGradient>
    <filter id="shadow" x="-30%" y="-30%" width="160%" height="160%">
      <feDropShadow dx="0" dy="22" stdDeviation="22" flood-color="#000000" flood-opacity="0.46"/>
    </filter>
    <filter id="glow" x="-40%" y="-40%" width="180%" height="180%">
      <feGaussianBlur stdDeviation="8" result="blur"/>
      <feMerge><feMergeNode in="blur"/><feMergeNode in="SourceGraphic"/></feMerge>
    </filter>
  </defs>

  <rect width="1800" height="1000" fill="url(#bg)"/>
  <rect width="1800" height="1000" fill="url(#spot)"/>
  <rect x="58" y="58" width="1684" height="884" rx="32" stroke="#243244" stroke-width="2"/>
  <rect x="92" y="92" width="1616" height="816" rx="24" stroke="#111827" stroke-width="2"/>

  <g opacity="0.15" stroke="#334155" stroke-width="1">
    <path d="M150 250H1650M150 375H1650M150 500H1650M150 625H1650M150 750H1650"/>
    <path d="M300 170V830M525 170V830M750 170V830M975 170V830M1200 170V830M1425 170V830"/>
  </g>

  <text x="130" y="135" font-family="Inter, Arial, sans-serif" font-size="46" fill="#f8fafc" font-weight="900" letter-spacing="1.1">ELYRIA RUNTIME LAW</text>
  <text x="130" y="176" font-family="Inter, Arial, sans-serif" font-size="19" fill="#94a3b8">Consequence admission before effect</text>
  <text x="130" y="207" font-family="Inter, Arial, sans-serif" font-size="13" fill="#64748b">15D public standing geometry · capacity field · admissibility · receipt/replay · fail-closed outcomes</text>

  <g transform="translate(1270 118)">
    <rect width="380" height="56" rx="16" fill="#020617" stroke="url(#gold)" stroke-width="1.6"/>
    <text x="190" y="35" text-anchor="middle" font-family="Inter, Arial, sans-serif" font-size="16" fill="#f8e7b0" font-weight="800">PROTECTED PUBLIC PROOF SURFACE</text>
  </g>

  <rect x="140" y="278" width="1520" height="456" rx="34" fill="#020617" stroke="#1f2937" stroke-width="2" filter="url(#shadow)"/>
  <rect x="166" y="304" width="1468" height="404" rx="26" fill="#08111f" stroke="#263244" stroke-width="1.5"/>

  <g filter="url(#shadow)">
    <rect x="220" y="390" width="360" height="210" rx="28" fill="#0f172a" stroke="#334155" stroke-width="2"/>
    <text x="400" y="448" text-anchor="middle" font-family="Inter, Arial, sans-serif" font-size="30" fill="#f8fafc" font-weight="900">PROPOSED</text>
    <text x="400" y="487" text-anchor="middle" font-family="Inter, Arial, sans-serif" font-size="30" fill="#f8fafc" font-weight="900">CONSEQUENCE</text>
    <text x="400" y="528" text-anchor="middle" font-family="Inter, Arial, sans-serif" font-size="15" fill="#94a3b8">requested · possible · authenticated</text>
  </g>

  <g filter="url(#shadow)">
    <rect x="1220" y="390" width="360" height="210" rx="28" fill="#0f172a" stroke="#334155" stroke-width="2"/>
    <text x="1400" y="448" text-anchor="middle" font-family="Inter, Arial, sans-serif" font-size="30" fill="#f8fafc" font-weight="900">BOUND</text>
    <text x="1400" y="487" text-anchor="middle" font-family="Inter, Arial, sans-serif" font-size="30" fill="#f8fafc" font-weight="900">OR REFUSED</text>
    <text x="1400" y="528" text-anchor="middle" font-family="Inter, Arial, sans-serif" font-size="15" fill="#94a3b8">execute · refuse · halt · escalate</text>
  </g>

  <path d="M580 495H720" stroke="url(#admit)" stroke-width="7" stroke-linecap="round" filter="url(#glow)"/>
  <path d="M1080 495H1220" stroke="url(#admit)" stroke-width="7" stroke-linecap="round" filter="url(#glow)"/>
  <path d="M690 478L720 495L690 512" stroke="#d8b76a" stroke-width="6" stroke-linecap="round" stroke-linejoin="round"/>
  <path d="M1190 478L1220 495L1190 512" stroke="#d8b76a" stroke-width="6" stroke-linecap="round" stroke-linejoin="round"/>

  <g filter="url(#shadow)">
    <rect x="720" y="330" width="360" height="330" rx="34" fill="#020617" stroke="url(#gold)" stroke-width="3"/>
    <text x="900" y="388" text-anchor="middle" font-family="Inter, Arial, sans-serif" font-size="28" fill="#f8e7b0" font-weight="900">15D STANDING</text>
    <text x="900" y="425" text-anchor="middle" font-family="Inter, Arial, sans-serif" font-size="28" fill="#f8fafc" font-weight="900">GEOMETRY</text>
    <text x="900" y="464" text-anchor="middle" font-family="Inter, Arial, sans-serif" font-size="14" fill="#cbd5e1">public category marker · protected machinery excluded</text>

    <g font-family="Inter, Arial, sans-serif" font-size="12" fill="#cbd5e1">
      <text x="760" y="512">authority · custody · evidence</text>
      <text x="760" y="538">state · policy · continuity</text>
      <text x="760" y="564">revocation · risk · capacity</text>
      <text x="760" y="590">failure behavior · receipt basis</text>
      <text x="760" y="616">replay basis · thermo-standing</text>
      <text x="760" y="642">corridor standing · standing decay</text>
    </g>
  </g>

  <g font-family="Inter, Arial, sans-serif" font-size="14" font-weight="800">
    <rect x="210" y="770" width="315" height="64" rx="16" fill="#0f172a" stroke="#334155"/>
    <text x="367" y="798" text-anchor="middle" fill="#f8fafc">ADMISSIBILITY</text>
    <text x="367" y="822" text-anchor="middle" fill="#94a3b8" font-size="12">standing under current state</text>

    <rect x="555" y="770" width="315" height="64" rx="16" fill="#0f172a" stroke="#334155"/>
    <text x="712" y="798" text-anchor="middle" fill="#f8fafc">CAPACITY FIELD</text>
    <text x="712" y="822" text-anchor="middle" fill="#94a3b8" font-size="12">burden cannot exceed support</text>

    <rect x="930" y="770" width="315" height="64" rx="16" fill="#0f172a" stroke="#334155"/>
    <text x="1087" y="798" text-anchor="middle" fill="#f8fafc">FAIL-CLOSED</text>
    <text x="1087" y="822" text-anchor="middle" fill="#94a3b8" font-size="12">uncertainty does not bind</text>

    <rect x="1275" y="770" width="315" height="64" rx="16" fill="#0f172a" stroke="#334155"/>
    <text x="1432" y="798" text-anchor="middle" fill="#f8fafc">RECEIPT / REPLAY</text>
    <text x="1432" y="822" text-anchor="middle" fill="#94a3b8" font-size="12">decision proof persists</text>
  </g>

  <rect x="140" y="875" width="1520" height="54" rx="18" fill="#020617" stroke="#263244"/>
  <text x="900" y="910" text-anchor="middle" font-family="Georgia, serif" font-size="25" fill="#f8e7b0">Consequence does not bind until standing resolves.</text>
</svg>